<?xml version="1.0" encoding="utf-8"?>
<svg id="Layer_1" data-name="Layer 1" xmlns="http://www.w3.org/2000/svg" viewBox="-4.817 0 109.039 136.837">
  <defs>
    <style>.cls-1{fill:#fdfcfc;}.cls-2{fill:#070707;}.cls-3{fill:#d1469a;}</style>
  </defs>
  <path class="cls-2" d="M27.29,91.24c3-2.82,5.27-4.89,7.48-7l33.7-32.41c3.85-3.7,7.13-4.17,9.8-1.42,2.94,3,2.49,6.35-1.49,10.14C69.38,67.6,62.07,74.77,54.45,81.6c-2.72,2.45-2.61,4.09-.67,6.94,8.29,12.22,16.33,24.62,24.47,36.95.51.79,1,1.58,1.54,2.38,2.48,4,2.13,7.44-1,9.53s-6.46,1.16-9.11-2.81C61.42,122.18,53.07,109.8,45,97.23c-2.15-3.36-3.06-3.29-6.36-.9-9.43,6.85-13.54,15.4-11.51,26.92a38.62,38.62,0,0,1,.06,7.53c-.12,4.76-2.3,7.53-5.91,7.64-3.85.12-6.27-2.77-6.28-7.67q0-21.66,0-43.33,0-31.8,0-63.59c0-5.52,2-8.16,6.18-8.14s6.08,2.7,6.09,8.3q0,30.86,0,61.71Z" transform="translate(-15 -7.54)"/>
  <path class="cls-2" d="M 91.9 85.92 C 91.9 98.46 91.96 111 91.9 123.54 C 91.9 129.22 87.41 132.45 83 130.17 C 80.49 128.87 79.61 126.71 79.62 123.96 C 79.62 98.41 79.62 72.85 79.62 47.3 C 79.62 43.13 82.16 40.48 85.77 40.47 C 89.38 40.46 91.83 43.07 91.86 47.35 C 92 60.21 91.9 73.06 91.9 85.92 Z"/>
  <path class="cls-3" d="M 83 28.3 L 96.4 28.3 C 98.55 28.3 100.27 29.04 100.29 31.41 C 100.31 33.78 98.51 34.53 96.41 34.54 C 90.89 34.54 85.41 34.65 79.86 34.54 C 75.02 34.44 73.41 31.65 75.66 27.36 C 77.32 24.21 80.14 22.15 83.03 20.2 C 85.51 18.53 88.03 16.99 90.47 15.2 C 92.326 13.866 93.083 11.469 92.33 9.31 C 91.77 7.19 90.18 6.31 88.14 6.1 C 85.889 5.735 83.651 6.819 82.54 8.81 C 82.277 9.201 82.065 9.625 81.91 10.07 C 81.2 12.58 80 14.75 77 13.46 C 73.77 12.1 74.74 9.31 75.63 6.98 C 77.38 2.46 83 -0.37 89 0.04 C 94.32 0.4 98.74 3.51 99.87 7.69 C 101.22 12.69 98.97 17.27 93.65 20.69 C 90.27 22.86 86.35 24.24 83 28.3 Z"/>
</svg>