<svg id="Layer_2" height="512" viewBox="0 0 16 16" width="512" xmlns="http://www.w3.org/2000/svg" data-name="Layer 2" fill="#CFA144"><path d="m14.8252 9.5649-6.8252 3.8609-6.8252-3.8609a.5.5 0 0 0 -.4922.87l7.0713 4a.4991.4991 0 0 0 .4922 0l7.0713-4a.5.5 0 0 0 -.4922-.87z"/><path d="m14.8252 7.5649-6.8252 3.8609-6.8252-3.8609a.5.5 0 0 0 -.4922.87l7.0713 4a.4991.4991 0 0 0 .4922 0l7.0713-4a.5.5 0 0 0 -.4922-.87z"/><path d="m15.3174 5.5649-7.0713-4a.4972.4972 0 0 0 -.4922 0l-7.0713 4a.5.5 0 0 0 0 .87l7.0713 4a.4991.4991 0 0 0 .4922 0l7.0713-4a.5.5 0 0 0 0-.87zm-7.3174 3.8609-6.0557-3.4258 6.0557-3.4258 6.0557 3.4258z"/></svg>
