<svg id="Layer_1" data-name="Layer 1" xmlns="http://www.w3.org/2000/svg" width="1080" height="1080" viewBox="0 0 1080 1080">
  <defs>
    <style>
      .cls-1 {
        fill: #050505;
      }

      .cls-2 {
        isolation: isolate;
        font-size: 294.17px;
        fill: #64a7db;
        font-family: Comfortaa-Bold, Comfortaa;
        font-weight: 700;
      }
    </style>
  </defs>
  <g>
    <path class="cls-1" d="M540.81,770.22c-.65.19-1.32.37-2,.54a255,255,0,0,1-43.59,7A328.4,328.4,0,0,0,540.81,770.22Z"/>
    <path class="cls-1" d="M703.79,296.23l-.15.15q-35.1-68.87-98.81-107.91c-42.63-25.93-92.4-38.89-149.63-38.89S346,163.14,301.54,190.26,222.25,254.5,197.06,301.59s-37.85,101.5-37.85,163.2S172.62,580,199.3,627.39A289.21,289.21,0,0,0,310,738.73q70.65,40,162.16,40.09,11.42,0,23-1.05a328.4,328.4,0,0,0,45.59-7.54h.11a41.31,41.31,0,0,0,3.92-1.37,31.48,31.48,0,0,0,17.51-16.69q6.48-14.53-.89-33.09c-4.17-8.64-11-15.2-20.72-19.52a45.42,45.42,0,0,0-30.1-2.68q-3.58,1-7.31,1.74A235.06,235.06,0,0,1,472,700.73q-67.74,0-119.68-30.55a219.43,219.43,0,0,1-81.82-83.61c-15.79-28-25.18-59.14-28.47-93.69h0l.15-.19H698.13c12.07,0,21.75-3.58,29.36-10.73,7.45-7.16,11.32-16.69,11.32-28.77Q738.81,365.08,703.79,296.23ZM244,420.38v.14h-.14v.21h-.08v-.35H244c3.89-28.26,11.48-54.59,23.23-78.4q26.61-53.66,75.11-84.2c32.35-20.27,70-30.56,113-30.56s78.55,9.84,109,29.36,54,46.65,70.64,81.38c11.93,25,19.23,52.61,22.21,82.42Z"/>
    <path class="cls-1" d="M243.89,420.52v.21h-.08v-.21Z"/>
    <path class="cls-1" d="M244,420.38v.14h-.14v-.14Z"/>
    <path class="cls-1" d="M544.89,768.82a1,1,0,0,1-.07.45c-1.28.32-2.57.62-3.85.92A41.31,41.31,0,0,0,544.89,768.82Z"/>
  </g>
  <text class="cls-2" transform="translate(574 912.54)">12</text>
  <path class="cls-1" d="M243.89,420.38v.35h-.08v-.35Z"/>
  <path class="cls-1" d="M243.89,420.53v.2h-.08v-.21Z"/>
</svg>
