<?xml version="1.0" encoding="utf-8"?>
<!-- Generator: Adobe Illustrator 26.0.1, SVG Export Plug-In . SVG Version: 6.00 Build 0)  -->
<svg version="1.1" id="Layer_1" xmlns="http://www.w3.org/2000/svg" xmlns:xlink="http://www.w3.org/1999/xlink" x="0px" y="0px"
	 width="1080px" height="1080px" viewBox="0 0 1080 1080" style="enable-background:new 0 0 1080 1080;" xml:space="preserve">
<style type="text/css">
	.st0{fill:#FFFFFF;}
</style>
<g>
	<path class="st0" d="M707.6,183.9c8,3.2,10.9,9.1,10.9,17.6c-0.3,30.9-0.1,61.9-0.1,92.8c0,12.8-4.6,17.2-17.6,17.3
		c-21.9,0.2-43.8,0.1-65.7,1c-11.9,0.5-23.3,3.9-29.2,15.7c-2.8,5.6-4.8,12.2-5,18.4c-0.6,24.5-0.2,49-0.2,74.4c2.3,0,4.5,0,6.8,0
		c29.7,0,59.3,0,89,0c13.3,0,17.8,4.6,17.8,17.8c0,33.5,0,67,0,100.6c0,12.5-4.6,17-17.2,17.1c-29.7,0-59.3,0-89,0
		c-2.3,0-4.6,0-7.7,0c0,3.1,0,5.6,0,8.1c0,86.6,0,173.2,0,259.8c0,15.3-4.3,19.5-19.5,19.5c-33.9,0-67.9,0-101.8,0
		c-13.4,0-17.9-4.4-17.9-17.7c0-87,0-174,0-261.1c0-2.5,0-5.1,0-8.6c-2.7,0-5,0-7.3,0c-25.1,0-50.3,0-75.4,0
		c-12.1,0-16.8-4.7-16.8-16.8c-0.1-33.9-0.1-67.9,0-101.8c0-11.9,5-16.8,16.9-16.8c24.9-0.1,49.8,0,74.8,0c2.3,0,4.7,0,7.8,0
		c0-2.8,0-5.1,0-7.3c0.1-26.6-0.6-53.3,0.5-79.9c1.6-37.9,13-72.5,38.7-101.4c21.5-24.2,48.8-38.1,80.1-44.6
		c7.5-1.6,15.2-2.7,22.7-4C638,183.9,672.8,183.9,707.6,183.9z"/>
</g>
</svg>
