<?xml version="1.0" encoding="utf-8"?>
<!-- Generator: Adobe Illustrator 26.0.1, SVG Export Plug-In . SVG Version: 6.00 Build 0)  -->
<svg version="1.1" id="Layer_1" xmlns="http://www.w3.org/2000/svg" xmlns:xlink="http://www.w3.org/1999/xlink" x="0px" y="0px"
	 width="1080px" height="1080px" viewBox="0 0 1080 1080" style="enable-background:new 0 0 1080 1080;" xml:space="preserve">
<style type="text/css">
	.st0{fill:#FFFDFF;}
	.st1{fill:#FFFEFE;}
	.st2{fill:#FFFFFF;}
</style>
<g>
	<ellipse class="st0" cx="535.7" cy="605.5" rx="452.7" ry="445.9"/>
	<g>
		<path d="M517.3,60.7c3.2,0,6.5,0,9.7,0c0.6,0.9,1.6,1,2.6,1c9.3,0,18.5,0,27.8,0c1,0,1.9-0.1,2.5-1c2.3,0,4.5,0,6.8,0
			c0.8,1.5,2.3,0.9,3.5,1c12.9,0.8,25.7,1.9,38.5,3.7C717.9,80.5,813,125.8,890.5,204.1c117.7,118.8,165,262.5,141.7,428
			c-15.1,107.1-63.1,199-139.6,275.3c-78.9,78.7-174.2,125.3-284.6,140.7c-4.5,0.6-5.3-0.6-5.3-4.8c0.1-109.9,0.1-219.8,0-329.7
			c0-4.7,1.5-5.5,5.7-5.4c40.7,0.1,81.3,0,122,0.2c5,0,6.8-1.2,7.7-6.2c8.3-46.7,17-93.3,25.5-139.9c1-5.7,1.1-5.7-4.8-5.7
			c-50.3,0-100.7,0-151,0.1c-4,0-5.1-1.1-5.1-5.1c0.2-17.9,0-35.8,0.1-53.7c0.1-12.1,1.2-24.2,3.7-36.1
			c6.4-31.5,23.7-53.5,55.4-62.8c8.5-2.5,17.2-4.2,26.1-5.1c26.4-2.6,52.9-1.5,79.3,0.1c4.4,0.3,5.7-0.6,5.7-5.2
			c-0.2-42-0.2-83.9,0-125.9c0-4.8-1.3-6.6-6-7.6c-26.3-5.4-52.9-8.4-79.6-9.9c-41.8-2.4-83.2,0.2-123.7,12
			c-62,18.1-103.7,57.5-124.5,118.8c-9.6,28.5-14,58-15.6,87.9c-1.5,29.2-0.8,58.4-0.7,87.6c0,4-1.1,5.1-5.1,5
			c-30.7-0.2-61.3,0-92-0.2c-3.9,0-5.2,0.9-5.1,5c0.2,47.3,0.1,94.6,0,141.8c0,4,1.1,5.1,5.1,5.1c30.3-0.2,60.7,0,91-0.2
			c4.8,0,6.1,1,6.1,6c-0.2,106-0.1,212,0,318.1c0,4.3-0.7,5.5-5.3,4.3c-207-53.6-357.6-236.9-369.8-450.4c-0.1-1.5,0.7-3.3-1-4.4
			c0-2.6,0-5.2,0-7.7c1.1-0.8,1-1.9,1-3c0-9,0-17.9,0-26.9c0-1.1,0.1-2.3-1-3c0-3.2,0-6.5,0-9.7c1.7-0.9,0.9-2.6,1-3.9
			c2-32.6,7.1-64.7,15.3-96.3C116.6,224.3,299.5,74.2,512.9,61.7C514.3,61.7,516.1,62.4,517.3,60.7z"/>
		<path d="M559.9,60.7c-0.6,0.9-1.6,1-2.5,1c-9.3,0-18.5,0-27.8,0c-1,0-1.9-0.1-2.6-1C537.9,60.7,548.9,60.7,559.9,60.7z"/>
		<path d="M46.7,541c1.1,0.8,1,1.9,1,3c0,9,0,17.9,0,26.9c0,1.1,0,2.3-1,3C46.7,562.9,46.7,551.9,46.7,541z"/>
	</g>
</g>
</svg>
