<svg id="Layer_1" enable-background="new 0 0 512 512" height="512" viewBox="0 0 512 512" width="512" xmlns="http://www.w3.org/2000/svg" fill="#CFA144"><path clip-rule="evenodd" d="m81.615 243.278c1.662 21.358 7.199 42.47 16.606 62.198l-32.552 18.794c-12.626-25.564-19.834-53.131-21.621-80.991h37.567zm186.02-148.646c27.545 0 49.875 22.33 49.875 49.875s-22.33 49.875-49.875 49.875-49.875-22.33-49.875-49.875 22.33-49.875 49.875-49.875zm-87.488 197.779h174.976c5.791 0 10.047-5.307 8.785-10.96-9.84-44.102-49.206-77.069-96.273-77.069-47.068 0-86.433 32.967-96.273 77.07-1.262 5.652 2.993 10.959 8.785 10.959zm72.938 89.89c8.533 1.042 15.542-1.526 17.917-10.389 2.135-7.97-2.902-15.446-10.409-18.074-24.229-4.443-47.703-12.929-66.164-19.604-26.49-9.577-33.406-11.829-59.536 3.3l-47 27.212 39.03 68.964 3.085-1.781c1.9-1.092 4.062-1.313 6.025-.789l105.974 28.371c15.382 4.121 24.713 2.468 37.696-5.527l145.532-89.613c4.534-2.791 6.762-9.272 6.105-15.609-.538-5.186-3.056-9.875-7.827-12.292-7.57-3.834-20.718-2.689-41.054 9.155l-80.505 46.89c-6.467 3.766-13.122 6.16-20.031 7.32-19.96 3.352-50.023-6.057-67.899-11.162-5.745-1.64-11.576-3.306-17.272-4.832-4.263-1.139-6.795-5.518-5.656-9.781s5.519-6.795 9.781-5.656c17.374 4.654 34.6 10.251 52.208 13.897zm-189.435-27.907 63.623 112.418c3.076 5.436 1.146 12.4-4.29 15.476l-21.641 12.248c-5.436 3.076-12.4 1.146-15.476-4.29l-63.623-112.418c-3.076-5.436-1.146-12.4 4.29-15.476l21.641-12.248c5.435-3.076 12.4-1.146 15.476 4.29zm-14.589 16.851c-4.222.617-7.145 4.54-6.527 8.763.617 4.223 4.541 7.145 8.763 6.528s7.145-4.541 6.527-8.763c-.618-4.223-4.541-7.146-8.763-6.528zm-5.013-155.582c1.857-28.909 9.458-56.275 21.679-80.957l32.747 18.906c-9.005 19.026-14.796 39.951-16.712 62.051zm35.503-104.862c15.653-23.432 35.809-43.611 59.244-59.282l18.713 32.411c-17.783 12.288-33.136 27.799-45.322 45.712zm83.147-73.112c24.66-12.219 52.019-19.834 80.974-21.684v37.555c-22.281 1.694-43.255 7.455-62.268 16.528zm108.588-21.689v37.566c91.011 7.021 162.675 83.093 162.675 175.905 0 7.43-.462 14.752-1.355 21.94h-12.332c-3.608 0-5.621 4.147-3.389 6.982l33.312 42.311c1.727 2.192 5.052 2.193 6.778 0l33.312-42.311c2.232-2.835.219-6.981-3.389-6.982h-16.561c.735-7.213 1.113-14.532 1.113-21.94-.001-113.522-88.432-206.375-200.164-213.471z" fill-rule="evenodd"/></svg>
