<?xml version="1.0" encoding="utf-8"?>
<!-- Generator: Adobe Illustrator 26.0.1, SVG Export Plug-In . SVG Version: 6.00 Build 0)  -->
<svg version="1.1" id="Layer_1" xmlns="http://www.w3.org/2000/svg" xmlns:xlink="http://www.w3.org/1999/xlink" x="0px" y="0px"
	 width="1080px" height="1080px" viewBox="0 0 1080 1080" style="enable-background:new 0 0 1080 1080;" xml:space="preserve">
<style type="text/css">
	.st0{fill:#FFFEFE;}
	.st1{fill:#FFFFFF;}
</style>
<path d="M809.9,1035H269.1C144.8,1035,44,934.2,44,809.9V269.1C44,144.8,144.8,44,269.1,44h540.9C934.2,44,1035,144.8,1035,269.1
	v540.9C1035,934.2,934.2,1035,809.9,1035z"/>
<g>
	<path class="st0" d="M844.3,839.4c-0.6,0.5-1.2,1-1.8,1.6c-21,21.5-45.9,36.5-74.4,46c-14.4,4.8-29.2,8.2-44.2,10.3
		c-12,1.7-24.1,2.6-36.3,3.2c-35.5,1.8-71,2.2-106.5,2.2c-38.7,0-77.4,0.1-116.1-0.1c-15.7,0-31.4-0.4-47.1-0.8
		c-11.2-0.3-22.4-0.8-33.6-1.5c-22.6-1.3-44.9-4.4-66.6-11.1c-20.3-6.3-39.6-14.8-56.8-27.4c-31.3-22.9-54.1-52.3-67.2-89.1
		c-5.7-16.1-9.7-32.6-12.1-49.5c-1.7-12-2.6-24.1-3.2-36.3c-2.1-40.5-2.1-81-2.2-121.6c0-2-0.1-4-0.1-5.9c0-1.5,0.1-2.9,0.1-4.4
		c0.1-29.6,0-59.2,0.2-88.7c0.1-15.3,0.4-30.6,0.8-45.9c0.3-11.7,0.8-23.5,1.5-35.2c1.1-19.8,3.5-39.4,8.6-58.7
		c5.4-20.7,13.1-40.5,24.9-58.4c22.2-33.8,51.8-58.5,89.7-73c15.7-6,31.8-10.3,48.5-12.9c14-2.2,28-3.3,42.1-4
		c38.1-1.9,76.3-2.1,114.4-2.1c32.7,0,65.5,0,98.2,0.1c16.9,0.1,33.8,0.3,50.7,0.7c12.4,0.3,24.8,0.8,37.2,1.5
		c19,1,37.9,3.2,56.4,7.8c20.2,5,39.6,12.2,57.4,23.2c35.8,22.2,61.8,52.7,77,92.2c6.6,17.1,11,34.7,13.6,52.8
		c1.7,12.3,2.7,24.7,3.3,37.1c1.7,34,2.1,68.1,2.1,102.2c0,40.3,0,80.5-0.1,120.8c-0.1,21.9-0.6,43.8-1.6,65.7
		c-0.5,10.7-1,21.4-2.1,32c-2.8,26.3-8.8,51.7-19.8,75.9c-8,17.7-18.7,33.7-31.9,47.9C846.2,837.2,845.2,838.3,844.3,839.4z
		 M242.1,547.6c0,0.9-0.1,1.8-0.1,2.8c0.2,41.5-0.4,82.9,1.5,124.3c0.6,11.7,1,23.5,2.4,35.1c1.4,11.8,3.8,23.4,7.3,34.8
		c6.9,22.1,18.7,40.9,36.1,56.2c12.1,10.7,25.8,18.2,40.9,23.5c17.1,6,34.7,8.8,52.7,10.1c19.5,1.4,39,1.9,58.6,2.3
		c12.9,0.3,25.9,0.3,38.8,0.3c49.9,0,99.8,0,149.7-0.1c15.6,0,31.1-0.7,46.7-1.4c13.2-0.5,26.4-1.3,39.4-3.2
		c13.8-2,27.1-5.5,40-10.7c22.6-9.1,40.3-24.3,54.2-44.1c2.4-3.5,4.7-7,6.3-11c3.7-6.3,6.2-13.1,8.5-20c5.6-16.4,8.2-33.3,9.4-50.5
		c1.4-21.6,2.2-43.3,2.4-64.9c0.2-39,0.3-77.9,0.3-116.9c0-38.2,0.2-76.3-1.7-114.5c-0.6-12.4-1.3-24.8-3.1-37.1
		c-1.9-12.8-5.1-25.3-9.6-37.5c-8.9-23.5-24.1-42-44.4-56.3c-10.4-7.4-22.1-12.3-34.2-16.1c-15.7-5-31.9-7.4-48.2-8.5
		c-12.8-0.9-25.6-1.3-38.4-1.7c-21-0.8-42-0.9-63-0.9c-46.5,0-92.9,0-139.4,0.1c-17.2,0-34.3,0.7-51.5,1.4
		c-13.3,0.6-26.6,1.2-39.8,3.2c-10.7,1.6-21.2,4-31.6,7.3c-23.3,7.5-42.4,20.9-57.8,39.9c-9.4,11.5-15.7,24.6-20.5,38.6
		c-5.6,16.6-8.2,33.8-9.4,51.3c-1.4,21.1-2.1,42.2-2.3,63.3c-0.3,32.6-0.2,65.2-0.3,97.8C242,545.7,242,546.6,242.1,547.6z"/>
	<path class="st0" d="M698.6,637.3c-0.7,1.1-1.5,2.2-2.2,3.3c-27.5,41.6-65.4,68.5-113.9,80.5c-16.6,4.1-33.6,5.6-50.7,4.9
		c-85.3-3.8-153.4-63.3-173-140.4c-3.7-14.7-5.6-29.6-5.8-44.7c0-1.5-0.1-2.9-0.1-4.4c0.4-6.3,0.7-12.6,1.4-18.9
		c2.3-20.1,7.8-39.3,16.5-57.6c23.8-50.4,68.6-87.4,122.6-101.2c10.8-2.8,21.7-4.4,32.8-5.3c10.4-0.8,20.9-0.7,31.2,0.4
		c29.9,2.9,57.7,12.3,82.9,28.8c43,28.2,70.2,67.4,81.5,117.6c3.6,15.8,4.8,31.8,4,48c-1.6,31-10.1,60-26,86.7
		C699.4,635.6,699,636.5,698.6,637.3z M418.8,533.4c-0.8,12.1,0.4,24,3.4,35.7c15.1,59.6,73.8,101.4,139.5,89.4
		c33.7-6.2,60-24.3,79.2-52.7c0.5-0.8,0.9-1.6,1.4-2.4c0.5-0.8,1.1-1.5,1.6-2.3c16-27.6,20.8-57.1,13.9-88.1
		c-11.6-52.2-55.5-88.6-104.7-93.7c-13.2-1.4-26.4-0.8-39.3,2c-44.7,9.9-79.9,44-91.3,88.3C420.3,517.4,419,525.3,418.8,533.4z"/>
	<path class="st0" d="M777,345.5c0.3,23-18.4,43.5-43.4,43.7c-24.2,0.1-44-19.5-43.8-43.7c0.2-25.8,21.4-43.5,43.6-43.5
		C756.9,302,777.1,321.2,777,345.5z"/>
</g>
</svg>
