<?xml version="1.0" encoding="utf-8"?>
<!-- Generator: Adobe Illustrator 26.0.1, SVG Export Plug-In . SVG Version: 6.00 Build 0)  -->
<svg version="1.1" id="Layer_1" xmlns="http://www.w3.org/2000/svg" xmlns:xlink="http://www.w3.org/1999/xlink" x="0px" y="0px"
	 width="1080px" height="1080px" viewBox="0 0 1080 1080" style="enable-background:new 0 0 1080 1080;" xml:space="preserve">
<style type="text/css">
	.st0{fill:#FCFCFC;}
</style>
<g>
	<path class="st0" d="M539.1,812.4c-151.3-0.1-272.1-121.8-272-273.9C267.2,389,389.7,267.4,540.7,268
		C693,268.6,813.5,394.2,811,544.8C808.5,692.8,687.5,812.8,539.1,812.4z M403.2,526.4c1.3-36.8,7.4-72.3,18.6-107.3
		c-1.6-0.2-2.7-0.6-3.8-0.6c-31.1,0-62.3-0.1-93.4,0.2c-2.2,0-5.2,2.3-6.3,4.4c-10.6,18.8-18.4,38.8-23,59.9
		c-3.1,14.1-4.9,28.5-7.4,43.3C327,526.4,364.7,526.4,403.2,526.4z M289,554c0,1.6-0.1,2.5,0,3.5c2.5,35.9,12.4,69.7,29.9,101.1
		c0.9,1.7,3.9,3.1,5.9,3.1c30.8,0.2,61.6,0.1,92.4,0.1c1.4,0,2.8-0.4,4.6-0.6c-11.4-35.2-17.2-70.8-18.8-107.2
		C364.8,554,327.3,554,289,554z M788.8,526.5c0.1-1.3,0.3-2.2,0.2-3.1c-2.3-35.9-12.3-69.7-29.7-101.1c-1.1-1.9-4.5-3.5-6.9-3.5
		c-28.2-0.2-56.5-0.2-84.8-0.1c-1.8,0-3.7,0.2-6.1,0.3c11.5,35.4,17.2,71,18.9,107.6C716.8,526.5,752.7,526.5,788.8,526.5z
		 M680.5,554.2c-1.5,36.7-7.5,72.3-18.9,107.7c2.8,0,4.5,0,6.2,0c28,0,56.1-0.1,84.1,0.1c4.3,0,6.6-1.3,8.5-5.1
		c10.5-20,18.7-40.8,23.3-62.9c2.7-12.9,4.2-26.2,6.3-39.8C752.6,554.2,716.8,554.2,680.5,554.2z M530.7,526.5c0-36,0-71.6,0-107.4
		c-1.2-0.2-2.1-0.4-3-0.4c-26.3,0-52.6,0-78.9-0.1c-3.6,0-4.7,1.9-5.4,4.7c-5.3,22.4-11.1,44.7-15.6,67.2
		c-2.3,11.6-2.5,23.7-3.6,36.1C460.2,526.5,495.1,526.5,530.7,526.5z M553,418.6c0,36.1,0,72,0,107.9c35.4,0,70.4,0,105.7,0
		c0-2.3,0.1-4.2,0-6c-1.4-30.7-6.9-60.7-16.2-90.1c-3.7-11.8-3.7-11.8-15.9-11.8C602.3,418.6,577.9,418.6,553,418.6z M425,554.1
		c-0.1,1.1-0.3,1.9-0.3,2.6c1.3,34.7,7.8,68.4,18.8,101.2c1.1,3.3,2.9,3.9,6,3.9c25.3-0.1,50.7,0,76-0.1c1.7,0,3.4-0.2,5.2-0.3
		c0-36,0-71.5,0-107.4C495.4,554.1,460.5,554.1,425,554.1z M552.7,661.9c2.6,0,4.5,0,6.4,0c24.6,0,49.1-0.1,73.7,0.1
		c4.4,0,6.4-1.2,7.8-5.5c9.7-29.2,15.6-59.1,17.8-89.7c0.3-4.1,0-8.3,0-12.4c-35.5,0-70.6,0-105.7,0
		C552.7,590.2,552.7,625.6,552.7,661.9z M497.9,789.7c-1.8-2.3-2.5-3.2-3.2-4.1c-23.8-29-45.3-59.4-61.3-93.5
		c-0.8-1.6-3.8-3.2-5.7-3.2c-28.1-0.2-56.1-0.1-84.2-0.1c-1.3,0-2.5,0.1-4.7,0.3C378.8,743.3,431,776.6,497.9,789.7z M738.7,391.2
		c-15.6-42.8-99.7-97.9-152.4-99.6c1.8,2.3,3.4,4.2,4.9,6.1c22.4,27.6,42.8,56.5,57.9,88.9c1.8,3.8,3.7,5,7.8,5
		c25.7-0.2,51.5-0.1,77.2-0.1C735.7,391.5,737.1,391.3,738.7,391.2z M338.5,391.4c29.6,0,57.8,0,86-0.1c1.2,0,3-1.6,3.6-2.9
		c10.8-23.2,25.9-43.6,41.7-63.5c8.9-11.2,18.1-22.1,28-34.1C428.6,299.6,379.5,337.7,338.5,391.4z M738.8,689.1
		c-1-0.1-1.7-0.3-2.4-0.3c-27.1,0-54.2-0.1-81.3,0.2c-1.9,0-4.6,2.5-5.5,4.5c-12.4,27.5-27.1,53.5-44.6,78
		c-4.1,5.8-8.5,11.3-13.2,17.7C655.1,776,703.4,742.6,738.8,689.1z M530.8,289.8c-32.5,30.3-60.9,61.8-80.3,101.2
		c27.4,0,53.7,0,80.3,0C530.8,357.5,530.8,324.4,530.8,289.8z M552.7,790.2c37.8-24.8,58.1-61.2,74.5-101c-25.1,0-49.7,0-74.5,0
		C552.7,722.9,552.7,756.2,552.7,790.2z M456,689.1c17.6,39.3,38.2,75.5,74.6,101.2c0-34.3,0-67.6,0-101.2
		C505.8,689.1,481.3,689.1,456,689.1z M552.9,290c0,34.5,0,67.7,0,101c23.1,0,45.7,0,69.3,0C604.4,353.6,583.8,319.1,552.9,290z"/>
</g>
</svg>
