<?xml version="1.0" encoding="utf-8"?>
<!-- Generator: Adobe Illustrator 26.0.1, SVG Export Plug-In . SVG Version: 6.00 Build 0)  -->
<svg version="1.1" id="Layer_1" xmlns="http://www.w3.org/2000/svg" xmlns:xlink="http://www.w3.org/1999/xlink" x="0px" y="0px"
	 width="1080px" height="1080px" viewBox="0 0 1080 1080" style="enable-background:new 0 0 1080 1080;" xml:space="preserve">
<style type="text/css">
	.st0{display:none;fill:#C7D4D8;}
	.st1{fill:#FFFFFF;}
	.st2{fill:#D1469A;}
	.st3{fill:#FDFCFC;}
	.st4{fill:#070707;}
</style>
<rect x="-60.4" y="-34.7" class="st0" width="1449.3" height="1302.3"/>
<g>
	<path class="st1" d="M713.3,498.1c0-2.2,0-4.2,0-6.3c0-15.9,0-31.9,0-47.8c0-7.1-2.9-10.6-8.4-10.5c-5.4,0.1-8.4,3.7-8.4,10.7
		c0,48.9,0,97.7,0,146.6c0,6.8,3.2,10.8,8.4,10.9c5.3,0,8.4-3.9,8.4-10.7c0-18.1-0.3-36.2,0.1-54.2c0.4-17.5,7.8-31.3,24.2-38.9
		c20.3-9.5,41.6,0.3,47.8,21.8c2,6.9,2.3,14,2.3,21.1c0,16.8,0,33.6,0,50.4c0,7.1,2.9,10.7,8.3,10.7c5.4,0,8.4-3.6,8.5-10.6
		c0.1-15.9,0-31.9,0-47.8c0-8,0-15.9-1.8-23.8c-4.4-19-13.9-34-33.7-39.8c-20.1-5.9-37,0.5-51.3,15
		C716.6,496,715.9,497.7,713.3,498.1z M368.3,537.4c0-30,0-58.2,0-86.4c0-3.4,0.2-6.9-0.2-10.3c-0.4-4.5-3.2-6.9-7.7-7.1
		c-4.5-0.2-7.5,2-8.5,6.3c-0.4,1.6-0.3,3.4-0.3,5.1c0,48.4,0,96.8,0,145.2c0,0.9,0,1.7,0,2.6c0.3,5.3,3.1,8.7,8.5,8.7
		c5.4,0,8.1-3.4,8.2-8.8c0-4.3,0.6-8.7-0.1-12.9c-2.4-14.8,2.6-25.9,14.9-34.7c6.6-4.7,6.1-5.5,10.7,1.5
		c11.1,16.7,22.2,33.4,33.2,50.1c2.4,3.6,5.4,5.7,9.8,4.6c3.7-1,5.8-3.7,6.2-7.5c0.3-3-1.4-5.3-2.9-7.7c-11.9-18-23.6-36-35.6-53.9
		c-2.2-3.3-2.2-5.2,0.8-7.9c11.1-10.2,22-20.7,32.9-31.1c3.9-3.8,4.1-8.1,0.5-12c-3.8-4.1-8-3.5-11.9,0.2
		c-4.1,3.9-8.1,7.8-12.1,11.6C399.5,507.5,384.6,521.8,368.3,537.4z M115.8,537c0-3.5,0-5.5,0-7.6c0-28.2,0-56.4,0-84.5
		c0-7.7-2.8-11.3-8.4-11.4c-5.7,0-8.5,3.6-8.5,11.1c0,29,0,58.1,0,87.1c0,19.8,0,39.6,0,59.4c0,6.7,3.3,10.7,8.6,10.5
		c5-0.1,7.9-3.9,8.1-10.5c0.1-3.4,0.5-7-0.1-10.3c-2.8-15.8,2.8-27.5,15.8-36.9c4.5-3.3,5.8-3.4,8.7,1.2
		c11,17.2,22.5,34.2,33.8,51.2c3.6,5.4,8.2,6.7,12.5,3.8c4.2-2.9,4.7-7.6,1.3-13.1c-0.7-1.1-1.4-2.2-2.1-3.2
		c-11.1-16.9-22.2-33.9-33.5-50.6c-2.6-3.9-2.8-6.2,0.9-9.5c10.4-9.4,20.4-19.2,30.6-28.9c5.4-5.2,6.1-9.7,2-13.9
		c-3.7-3.8-8.1-3.1-13.4,2c-15.4,14.8-30.8,29.6-46.2,44.4C123.1,530.3,120,533.2,115.8,537z M554.6,582.1c0,4-0.3,8.2,0.1,12.4
		c0.4,4.5,3.2,7.1,7.7,7.2c4.7,0.2,7.8-2.4,8.7-7c0.3-1.7,0.2-3.4,0.2-5.1c0-33.1,0-66.3,0-99.4c0-1.9,0.1-3.9-0.3-5.8
		c-1.1-4.3-4-6.6-8.5-6.4c-4.2,0.2-6.8,2.6-7.6,6.7c-0.4,2.1-0.3,4.3-0.3,6.4c0,17,0.1,34-0.1,51c-0.1,14.6-5.4,27-17.4,35.8
		c-21.4,15.7-48.6,5.8-55-19.7c-1.5-6.1-2-12.3-2-18.6c0-17.4,0.1-34.9,0-52.3c0-6.2-3-9.5-8.2-9.3c-5.5,0.2-8.5,3.3-8.5,8.6
		c0.2,22.4-1.6,44.8,0.9,67.1c2.3,20.7,11.2,37.9,32.3,45.3c21.1,7.4,39.1,0.9,54.2-14.7C551.4,583.2,551.8,581.7,554.6,582.1z
		 M889.7,499.6c0-6,0.4-10.2-0.1-14.4c-0.5-4.6-3.5-7.4-8.3-7.3c-4.7,0.1-7.6,2.8-8.2,7.5c-0.2,1.7-0.1,3.4-0.1,5.2
		c0,31.6,0,63.2,0,94.9c0,2.6-0.1,5.2,0,7.7c0.2,5.1,3,8.2,8,8.4c5.4,0.2,8.3-3.1,8.7-8.4c0.1-1.5,0-3,0-4.5
		c0-17.4-0.2-34.9,0.1-52.3c0.3-15.9,6.9-28.8,21.1-36.9c20.9-12,44.3-2.3,50.9,20.7c1.7,6.1,2.3,12.2,2.2,18.5
		c0,17.4,0,34.9,0,52.3c0,6.9,3,10.7,8.3,10.8c5.4,0.1,8.4-3.6,8.5-10.5c0-12.9,0.1-25.8,0-38.7c-0.1-10.3,0.5-20.6-1.4-30.9
		c-5.6-31.1-30.4-49.1-59.1-42.5C908.3,481.9,899.1,489.2,889.7,499.6z M633.7,477.7c-9.7,0-18.9,2.2-27,7.6
		c-18.8,12.4-18.9,36.9-0.4,49.5c8.1,5.5,17.4,8.4,26.7,11.3c5.8,1.8,11.6,3.4,16.9,6.3c6.4,3.5,11.4,8.2,11,16.1
		c-0.3,7.9-5.1,12.9-11.9,16.4c-11.2,5.8-33.7,5.3-43.5-10.3c-3.4-5.4-8.7-6.8-12.6-3.9c-5.1,3.7-3.6,8.1-0.9,12.5
		c5.8,9.6,14.8,14.9,25.4,17.6c18.4,4.6,35.9,3.3,50.1-10.7c15.2-14.9,12.3-37.2-5.8-48.3c-4.4-2.7-9.2-4.6-14.1-6.3
		c-8.6-2.9-17.3-5.5-25.6-9c-9.6-4-13.5-10.2-12.6-18.2c0.8-7.6,7.3-13.1,17.1-15.2c13.1-2.7,23.9,1.1,32.8,10.7
		c2.9,3.1,5.9,3.4,9.2,1.1c3.2-2.3,3.9-5.5,2.2-9.1c-1.8-3.8-4.5-6.8-7.8-9.3C654.3,480.1,644.3,477.8,633.7,477.7z M846.9,540.1
		c0-17.6,0.1-35.2,0-52.8c0-5.9-3.4-9.5-8.3-9.4c-4.9,0-8.4,3.6-8.4,9.4c-0.1,35,0,70-0.1,105c0,3.8,1.2,6.7,4.6,8.5
		c6,3.1,12.1-1.3,12.2-9.1C847,574.4,846.9,557.2,846.9,540.1z M831.9,461.1c4.6-5.6,10-7.5,14.6-10.4c7.3-4.7,10.4-11,8.5-17.8
		c-1.6-5.7-7.6-10-14.9-10.5c-8.2-0.6-15.9,3.3-18.3,9.5c-1.2,3.2-2.5,7,1.9,8.9c4.2,1.8,5.8-1.2,6.7-4.6c0.2-0.6,0.5-1.2,0.9-1.7
		c1.7-3,4.4-4,7.7-3.7c2.8,0.2,5,1.5,5.7,4.4c0.8,3.2,0.2,6.1-2.5,8.1c-3.3,2.4-6.8,4.5-10.2,6.8c-4,2.7-7.8,5.5-10.1,9.8
		c-3.1,5.9-0.9,9.7,5.7,9.8c7.6,0.2,15.1,0.1,22.7,0c2.9,0,5.3-1,5.3-4.3c0-3.2-2.4-4.3-5.3-4.3
		C844.7,461.1,839.1,461.1,831.9,461.1z"/>
	<path class="st1" d="M308.4,582.2c-14.4,14-29.6,21.5-48.3,21c-33.3-0.9-60.8-29-60.9-62.4c0-33.9,27.1-61.8,61.1-62.9
		c33.9-1,63.2,25,64.6,58.3c0.8,18.7,0.3,37.4,0.2,56.1c0,5.7-3.6,9.4-8.4,9.4c-4.9,0-8-3.6-8.3-9.6
		C308.3,589.4,308.4,586.7,308.4,582.2z M308.4,540.6c0-25.7-20.3-46-46-46c-25.5,0-46.3,20.6-46.3,45.9c0,25.3,20.7,45.9,46.2,45.9
		C288,586.4,308.5,566.1,308.4,540.6z"/>
	<path class="st1" d="M713.3,498.1c2.6-0.4,3.3-2.2,4.4-3.3c14.3-14.5,31.2-20.9,51.3-15c19.8,5.8,29.3,20.8,33.7,39.8
		c1.8,7.8,1.8,15.8,1.8,23.8c0,15.9,0,31.9,0,47.8c0,7-3,10.6-8.5,10.6c-5.4,0-8.3-3.7-8.3-10.7c0-16.8,0-33.6,0-50.4
		c0-7.1-0.3-14.2-2.3-21.1c-6.2-21.4-27.5-31.3-47.8-21.8c-16.4,7.7-23.8,21.5-24.2,38.9c-0.4,18.1-0.1,36.2-0.1,54.2
		c0,6.9-3.1,10.8-8.4,10.7c-5.2,0-8.4-4.1-8.4-10.9c0-48.9,0-97.7,0-146.6c0-7.1,2.9-10.7,8.4-10.7c5.5-0.1,8.4,3.5,8.4,10.5
		c0,15.9,0,31.9,0,47.8C713.3,493.9,713.3,496,713.3,498.1z"/>
	<path class="st1" d="M368.3,537.4c16.3-15.6,31.1-29.9,46-44.2c4-3.9,8.1-7.8,12.1-11.6c3.9-3.7,8.1-4.3,11.9-0.2
		c3.6,3.9,3.5,8.3-0.5,12c-10.9,10.5-21.8,20.9-32.9,31.1c-3,2.8-3,4.6-0.8,7.9c12,17.9,23.8,35.9,35.6,53.9
		c1.6,2.4,3.3,4.7,2.9,7.7c-0.4,3.8-2.5,6.5-6.2,7.5c-4.4,1.2-7.4-0.9-9.8-4.6c-11-16.7-22.1-33.4-33.2-50.1
		c-4.6-7-4.1-6.3-10.7-1.5c-12.2,8.8-17.3,19.8-14.9,34.7c0.7,4.2,0.1,8.6,0.1,12.9c0,5.4-2.7,8.8-8.2,8.8c-5.3,0-8.1-3.4-8.5-8.7
		c-0.1-0.9,0-1.7,0-2.6c0-48.4,0-96.8,0-145.2c0-1.7-0.1-3.5,0.3-5.1c1.1-4.3,4.1-6.5,8.5-6.3c4.5,0.2,7.3,2.6,7.7,7.1
		c0.3,3.4,0.2,6.9,0.2,10.3C368.3,479.2,368.3,507.3,368.3,537.4z"/>
	<path class="st1" d="M115.8,537c4.1-3.9,7.2-6.7,10.2-9.6c15.4-14.8,30.8-29.6,46.2-44.4c5.3-5.1,9.8-5.7,13.4-2
		c4,4.1,3.4,8.7-2,13.9c-10.1,9.7-20.2,19.5-30.6,28.9c-3.7,3.3-3.6,5.6-0.9,9.5c11.4,16.7,22.4,33.7,33.5,50.6
		c0.7,1.1,1.4,2.2,2.1,3.2c3.4,5.5,2.9,10.2-1.3,13.1c-4.3,2.9-8.8,1.6-12.5-3.8c-11.4-17-22.8-34-33.8-51.2
		c-2.9-4.6-4.2-4.5-8.7-1.2c-12.9,9.4-18.6,21.1-15.8,36.9c0.6,3.3,0.2,6.9,0.1,10.3c-0.2,6.5-3.1,10.3-8.1,10.5
		c-5.3,0.2-8.6-3.8-8.6-10.5c0-19.8,0-39.6,0-59.4c0-29,0-58.1,0-87.1c0-7.6,2.8-11.2,8.5-11.1c5.6,0,8.3,3.7,8.4,11.4
		c0,28.2,0,56.4,0,84.5C115.8,531.5,115.8,533.6,115.8,537z"/>
	<path class="st1" d="M554.6,582.1c-2.7-0.4-3.2,1.1-4,2c-15.1,15.7-33.1,22.1-54.2,14.7c-21-7.4-30-24.6-32.3-45.3
		c-2.5-22.3-0.7-44.7-0.9-67.1c-0.1-5.3,3-8.4,8.5-8.6c5.2-0.2,8.2,3.2,8.2,9.3c0.1,17.4,0,34.9,0,52.3c0,6.3,0.4,12.5,2,18.6
		c6.4,25.6,33.6,35.4,55,19.7c12-8.8,17.3-21.2,17.4-35.8c0.2-17,0-34,0.1-51c0-2.1-0.1-4.3,0.3-6.4c0.8-4.1,3.5-6.5,7.6-6.7
		c4.5-0.2,7.4,2.2,8.5,6.4c0.5,1.8,0.3,3.8,0.3,5.8c0,33.1,0,66.3,0,99.4c0,1.7,0.1,3.5-0.2,5.1c-0.9,4.7-3.9,7.2-8.7,7
		c-4.5-0.2-7.3-2.8-7.7-7.2C554.3,590.3,554.6,586.1,554.6,582.1z"/>
	<path class="st1" d="M889.7,499.6c9.4-10.4,18.6-17.7,30.7-20.5c28.7-6.6,53.5,11.4,59.1,42.5c1.8,10.3,1.3,20.6,1.4,30.9
		c0.1,12.9,0,25.8,0,38.7c0,7-3,10.6-8.5,10.5c-5.3-0.1-8.3-3.9-8.3-10.8c0-17.4,0-34.9,0-52.3c0-6.3-0.5-12.5-2.2-18.5
		c-6.5-23-29.9-32.7-50.9-20.7c-14.2,8.1-20.8,21-21.1,36.9c-0.3,17.4-0.1,34.9-0.1,52.3c0,1.5,0.1,3,0,4.5
		c-0.4,5.3-3.4,8.6-8.7,8.4c-5-0.1-7.8-3.3-8-8.4c-0.1-2.6,0-5.2,0-7.7c0-31.6,0-63.2,0-94.9c0-1.7-0.2-3.5,0.1-5.2
		c0.7-4.7,3.5-7.4,8.2-7.5c4.8-0.1,7.8,2.7,8.3,7.3C890,489.4,889.7,493.6,889.7,499.6z"/>
	<path class="st1" d="M633.7,477.7c10.6,0.1,20.6,2.5,29.2,9c3.3,2.5,6,5.6,7.8,9.3c1.8,3.6,1.1,6.8-2.2,9.1c-3.3,2.3-6.3,2-9.2-1.1
		c-8.9-9.7-19.7-13.4-32.8-10.7c-9.8,2-16.3,7.6-17.1,15.2c-0.9,8,3,14.2,12.6,18.2c8.3,3.5,17.1,6.1,25.6,9
		c4.9,1.7,9.7,3.6,14.1,6.3c18.1,11.1,21,33.4,5.8,48.3c-14.3,13.9-31.7,15.3-50.1,10.7c-10.6-2.7-19.5-8-25.4-17.6
		c-2.7-4.4-4.1-8.8,0.9-12.5c3.9-2.9,9.2-1.5,12.6,3.9c9.7,15.6,32.3,16.1,43.5,10.3c6.7-3.5,11.5-8.5,11.9-16.4
		c0.3-7.9-4.6-12.5-11-16.1c-5.3-2.9-11.2-4.6-16.9-6.3c-9.3-2.9-18.6-5.8-26.7-11.3c-18.6-12.7-18.4-37.1,0.4-49.5
		C614.9,479.9,624,477.7,633.7,477.7z"/>
	<path class="st1" d="M846.9,540.1c0,17.2,0.1,34.4,0,51.5c-0.1,7.8-6.2,12.2-12.2,9.1c-3.4-1.8-4.6-4.8-4.6-8.5c0-35,0-70,0.1-105
		c0-5.7,3.5-9.3,8.4-9.4c4.9,0,8.3,3.6,8.3,9.4C847,504.8,846.9,522.5,846.9,540.1z"/>
	<path class="st2" d="M831.9,461.1c7.1,0,12.7,0,18.4,0c2.9,0,5.3,1,5.3,4.3c0,3.3-2.4,4.3-5.3,4.3c-7.6,0-15.1,0.1-22.7,0
		c-6.6-0.1-8.8-4-5.7-9.8c2.3-4.3,6.1-7.1,10.1-9.8c3.4-2.3,6.9-4.4,10.2-6.8c2.7-2,3.4-4.9,2.5-8.1c-0.8-2.9-2.9-4.2-5.7-4.4
		c-3.2-0.3-6,0.7-7.7,3.7c-0.3,0.6-0.7,1.1-0.9,1.7c-1,3.4-2.5,6.4-6.7,4.6c-4.4-1.9-3.1-5.7-1.9-8.9c2.4-6.2,10.1-10.1,18.3-9.5
		c7.3,0.5,13.3,4.8,14.9,10.5c1.9,6.8-1.2,13.1-8.5,17.8C841.9,453.7,836.5,455.6,831.9,461.1z"/>
</g>
</svg>
