<svg id="Layer_1" data-name="Layer 1" xmlns="http://www.w3.org/2000/svg" viewBox="0 0 643.72 132.02"><defs><style>.cls-1{fill:#fdfcfc;}.cls-2{fill:#070707;}.cls-3{fill:#d1469a;}</style></defs><path class="cls-1" d="M463.41,62.85v-4.6c0-11.62,0-23.25,0-34.87,0-5.16-2.13-7.75-6.15-7.69s-6.12,2.69-6.12,7.84q0,53.49,0,107c0,4.94,2.36,7.88,6.14,7.92s6.12-2.82,6.13-7.82c0-13.2-.23-26.4.08-39.59.3-12.74,5.7-22.82,17.65-28.42,14.85-7,30.35.24,34.9,15.88a54.44,54.44,0,0,1,1.71,15.4c0,12.26,0,24.51,0,36.76,0,5.17,2.13,7.82,6.08,7.85s6.15-2.62,6.17-7.75c0-11.62,0-23.25,0-34.87,0-5.82,0-11.64-1.34-17.34-3.2-13.87-10.16-24.82-24.62-29.05-14.67-4.29-27,.36-37.43,11C465.8,61.27,465.32,62.56,463.41,62.85ZM211.57,91.49v-63c0-2.51.12-5-.12-7.53-.31-3.28-2.36-5.07-5.65-5.2a5.65,5.65,0,0,0-6.24,4.62,15.53,15.53,0,0,0-.26,3.74q0,53,0,106c0,.63,0,1.26,0,1.88.25,3.87,2.29,6.34,6.19,6.36s5.93-2.49,5.95-6.42c0-3.14.43-6.35-.07-9.41-1.76-10.81,1.92-18.9,10.86-25.3,4.82-3.44,4.43-4,7.81,1.13q12.1,18.28,24.21,36.57c1.73,2.64,3.92,4.17,7.12,3.33a5.85,5.85,0,0,0,4.52-5.44c.24-2.19-1-3.88-2.13-5.59-8.66-13.12-17.25-26.29-26-39.34-1.61-2.39-1.59-3.77.62-5.79,8.13-7.44,16.07-15.08,24-22.71,2.86-2.74,3-5.93.33-8.78s-5.85-2.57-8.7.14-5.91,5.67-8.86,8.51ZM27.29,91.24V85.7q0-30.86,0-61.71c0-5.6-2-8.28-6.09-8.3S15,18.31,15,23.83q0,31.79,0,63.59,0,21.66,0,43.33c0,4.9,2.43,7.79,6.28,7.67,3.61-.11,5.79-2.88,5.91-7.64a38.62,38.62,0,0,0-.06-7.53c-2-11.52,2.08-20.07,11.51-26.92,3.3-2.39,4.21-2.46,6.36.9,8.06,12.57,16.41,25,24.71,37.36,2.65,4,6,4.93,9.11,2.81s3.44-5.54,1-9.53c-.5-.8-1-1.59-1.54-2.38-8.14-12.33-16.18-24.73-24.47-36.95-1.94-2.85-2.05-4.49.67-6.94,7.62-6.83,14.93-14,22.33-21.06,4-3.79,4.43-7.11,1.49-10.14-2.67-2.75-6-2.28-9.8,1.42L34.77,84.23C32.56,86.35,30.3,88.42,27.29,91.24Zm320.25,32.91c0,2.93-.2,6,0,9,.27,3.25,2.36,5.15,5.63,5.27,3.46.13,5.65-1.74,6.32-5.13a20.48,20.48,0,0,0,.13-3.76q0-36.29,0-72.58a17.32,17.32,0,0,0-.26-4.21,5.68,5.68,0,0,0-6.19-4.7,5.51,5.51,0,0,0-5.56,4.85,24.53,24.53,0,0,0-.23,4.7c0,12.41.09,24.82,0,37.23-.11,10.64-4,19.69-12.73,26.12-15.62,11.46-35.49,4.27-40.16-14.39A55.64,55.64,0,0,1,293.07,93c0-12.72,0-25.45,0-38.17,0-4.5-2.22-6.93-6-6.81-4,.12-6.22,2.39-6.18,6.27.17,16.33-1.13,32.72.68,49,1.69,15.08,8.19,27.67,23.55,33.05s28.51.68,39.54-10.76C345.2,125,345.53,123.87,347.54,124.15Zm244.6-60.22c0-4.36.26-7.47-.07-10.52A5.54,5.54,0,0,0,586,48.06c-3.44.08-5.53,2.06-6,5.49a27.71,27.71,0,0,0-.06,3.76v69.26c0,1.88-.06,3.77,0,5.65.17,3.7,2.22,6,5.87,6.11,3.91.12,6-2.25,6.37-6.13.09-1.09,0-2.19,0-3.29,0-12.72-.18-25.45,0-38.16.21-11.64,5-21,15.38-26.94,15.29-8.74,32.36-1.69,37.14,15.13a48.85,48.85,0,0,1,1.64,13.51q0,19.08,0,38.16c0,5.06,2.22,7.83,6.09,7.89s6.16-2.62,6.18-7.7c0-9.42,0-18.84,0-28.26,0-7.53.34-15.06-1-22.55-4.08-22.72-22.18-35.83-43.13-31C605.73,51,599,56.36,592.14,63.93Zm-186.84-16a35.17,35.17,0,0,0-19.73,5.58c-13.7,9.07-13.83,26.91-.26,36.15,5.94,4,12.73,6.16,19.51,8.24,4.22,1.3,8.47,2.48,12.37,4.62,4.67,2.58,8.29,6,8.06,11.74s-3.73,9.43-8.66,12c-8.15,4.21-24.63,3.85-31.74-7.54-2.47-3.94-6.35-5-9.21-2.86-3.71,2.69-2.62,5.93-.68,9.13,4.25,7,10.79,10.9,18.52,12.84,13.44,3.39,26.18,2.39,36.59-7.79,11.12-10.86,9-27.16-4.23-35.23a51.91,51.91,0,0,0-10.32-4.62c-6.26-2.15-12.63-4-18.72-6.58-7-2.91-9.83-7.43-9.19-13.24.61-5.57,5.3-9.59,12.49-11.08,9.54-2,17.45.79,23.92,7.84,2.09,2.27,4.3,2.51,6.68.82s2.88-4,1.6-6.64a18.45,18.45,0,0,0-5.68-6.81C420.31,49.72,413.06,48,405.3,47.91ZM560.9,93.46c0-12.86.05-25.71,0-38.57,0-4.28-2.5-6.9-6.09-6.88s-6.14,2.66-6.15,6.83c0,25.55,0,51.11,0,76.66,0,2.75.87,4.91,3.38,6.21,4.41,2.28,8.86-1,8.9-6.63C561,118.54,560.9,106,560.9,93.46ZM550,35.84c3.36-4.06,7.28-5.44,10.63-7.6,5.32-3.43,7.57-8,6.22-13-1.13-4.18-5.55-7.29-10.87-7.65-6-.41-11.59,2.38-13.36,6.94-.89,2.33-1.86,5.12,1.37,6.48,3.06,1.29,4.22-.88,4.92-3.39a5.5,5.5,0,0,1,.63-1.26,5.42,5.42,0,0,1,5.6-2.71c2,.17,3.63,1.09,4.19,3.21a5.16,5.16,0,0,1-1.86,5.89c-2.4,1.78-5,3.32-7.44,5-2.89,1.95-5.71,4-7.37,7.16-2.25,4.29-.64,7.08,4.2,7.18,5.51.12,11,0,16.55,0,2.1,0,3.91-.71,3.88-3.13s-1.74-3.11-3.89-3.11Z" transform="translate(-15 -7.54)"/><path class="cls-2" d="M167.88,124.22c-10.54,10.2-21.6,15.68-35.27,15.32C108.3,138.89,88.2,118.38,88.19,94a46,46,0,0,1,44.59-45.88c24.75-.73,46.14,18.27,47.18,42.54.58,13.63.21,27.3.16,41,0,4.18-2.59,6.86-6.17,6.84s-5.87-2.65-6.06-7C167.8,129.46,167.88,127.47,167.88,124.22Zm0-30.39a33.33,33.33,0,0,0-33.58-33.55,33.5,33.5,0,1,0-.07,67A33.34,33.34,0,0,0,167.87,93.83Z" transform="translate(-15 -7.54)"/><path class="cls-2" d="M463.41,62.85c1.91-.29,2.39-1.58,3.22-2.42,10.44-10.59,22.76-15.24,37.43-11,14.46,4.23,21.42,15.18,24.62,29.05C530,84.23,530,90.05,530,95.87c0,11.62,0,23.25,0,34.87,0,5.13-2.2,7.78-6.17,7.75s-6.07-2.68-6.08-7.85c0-12.25,0-24.5,0-36.76A54.44,54.44,0,0,0,516,78.48c-4.55-15.64-20-22.83-34.9-15.88C469.18,68.2,463.78,78.28,463.48,91c-.31,13.19-.05,26.39-.08,39.59,0,5-2.29,7.85-6.13,7.82s-6.14-3-6.14-7.92q0-53.49,0-107c0-5.15,2.14-7.79,6.12-7.84s6.14,2.53,6.15,7.69c0,11.62,0,23.25,0,34.87Z" transform="translate(-15 -7.54)"/><path class="cls-2" d="M211.57,91.49l33.6-32.26Q249.6,55,254,50.72c2.85-2.71,5.94-3.11,8.7-.14s2.53,6-.33,8.78c-8,7.63-15.9,15.27-24,22.71-2.21,2-2.23,3.4-.62,5.79,8.77,13,17.36,26.22,26,39.34,1.13,1.71,2.37,3.4,2.13,5.59a5.85,5.85,0,0,1-4.52,5.44c-3.2.84-5.39-.69-7.12-3.33q-12.06-18.32-24.21-36.57c-3.38-5.1-3-4.57-7.81-1.13-8.94,6.4-12.62,14.49-10.86,25.3.5,3.06.09,6.27.07,9.41,0,3.93-2,6.43-5.95,6.42s-5.94-2.49-6.19-6.36c0-.62,0-1.25,0-1.88q0-53,0-106a15.53,15.53,0,0,1,.26-3.74,5.65,5.65,0,0,1,6.24-4.62c3.29.13,5.34,1.92,5.65,5.2.24,2.49.12,5,.12,7.53Z" transform="translate(-15 -7.54)"/><path class="cls-2" d="M27.29,91.24c3-2.82,5.27-4.89,7.48-7l33.7-32.41c3.85-3.7,7.13-4.17,9.8-1.42,2.94,3,2.49,6.35-1.49,10.14C69.38,67.6,62.07,74.77,54.45,81.6c-2.72,2.45-2.61,4.09-.67,6.94,8.29,12.22,16.33,24.62,24.47,36.95.51.79,1,1.58,1.54,2.38,2.48,4,2.13,7.44-1,9.53s-6.46,1.16-9.11-2.81C61.42,122.18,53.07,109.8,45,97.23c-2.15-3.36-3.06-3.29-6.36-.9-9.43,6.85-13.54,15.4-11.51,26.92a38.62,38.62,0,0,1,.06,7.53c-.12,4.76-2.3,7.53-5.91,7.64-3.85.12-6.27-2.77-6.28-7.67q0-21.66,0-43.33,0-31.8,0-63.59c0-5.52,2-8.16,6.18-8.14s6.08,2.7,6.09,8.3q0,30.86,0,61.71Z" transform="translate(-15 -7.54)"/><path class="cls-2" d="M347.54,124.15c-2-.28-2.34.83-2.93,1.43-11,11.44-24.17,16.15-39.54,10.76s-21.86-18-23.55-33c-1.81-16.26-.51-32.65-.68-49,0-3.88,2.18-6.15,6.18-6.27,3.8-.12,6,2.31,6,6.81.06,12.72,0,25.45,0,38.17a55.64,55.64,0,0,0,1.43,13.55c4.67,18.66,24.54,25.85,40.16,14.39,8.76-6.43,12.62-15.48,12.73-26.12.13-12.41,0-24.82,0-37.23a24.53,24.53,0,0,1,.23-4.7,5.51,5.51,0,0,1,5.56-4.85,5.68,5.68,0,0,1,6.19,4.7,17.32,17.32,0,0,1,.26,4.21q0,36.28,0,72.58a20.48,20.48,0,0,1-.13,3.76c-.67,3.39-2.86,5.26-6.32,5.13-3.27-.12-5.36-2-5.63-5.27C347.34,130.14,347.54,127.08,347.54,124.15Z" transform="translate(-15 -7.54)"/><path class="cls-2" d="M592.14,63.93C599,56.36,605.73,51,614.55,49c21-4.82,39.05,8.29,43.13,31,1.34,7.49,1,15,1,22.55.06,9.42,0,18.84,0,28.26,0,5.08-2.21,7.75-6.18,7.7s-6.08-2.83-6.09-7.89q-.06-19.08,0-38.16a48.85,48.85,0,0,0-1.64-13.51C640,62.12,622.93,55.07,607.64,63.81c-10.35,5.92-15.17,15.3-15.38,26.94-.23,12.71,0,25.44,0,38.16,0,1.1.06,2.2,0,3.29-.33,3.88-2.46,6.25-6.37,6.13-3.65-.11-5.7-2.41-5.87-6.11-.08-1.88,0-3.77,0-5.65V57.31a27.71,27.71,0,0,1,.06-3.76c.49-3.43,2.58-5.41,6-5.49a5.54,5.54,0,0,1,6.07,5.35C592.4,56.46,592.14,59.57,592.14,63.93Z" transform="translate(-15 -7.54)"/><path class="cls-2" d="M405.31,47.91c7.75.09,15,1.81,21.31,6.55a18.45,18.45,0,0,1,5.68,6.81c1.28,2.66.77,5-1.6,6.64s-4.59,1.45-6.68-.82c-6.47-7.05-14.38-9.82-23.92-7.84-7.19,1.49-11.88,5.51-12.49,11.08-.64,5.81,2.18,10.33,9.19,13.24,6.09,2.54,12.46,4.43,18.72,6.58a51.91,51.91,0,0,1,10.32,4.62c13.22,8.07,15.35,24.37,4.23,35.23-10.41,10.18-23.15,11.18-36.59,7.79C385.75,135.85,379.21,132,375,125c-1.94-3.2-3-6.44.68-9.13,2.86-2.09,6.74-1.08,9.21,2.86,7.11,11.39,23.59,11.75,31.74,7.54,4.93-2.55,8.43-6.2,8.66-12s-3.39-9.16-8.06-11.74c-3.9-2.14-8.15-3.32-12.37-4.62-6.78-2.08-13.57-4.2-19.51-8.24-13.57-9.24-13.44-27.08.26-36.15A35.18,35.18,0,0,1,405.31,47.91Z" transform="translate(-15 -7.54)"/><path class="cls-2" d="M560.9,93.46c0,12.54.06,25.08,0,37.62,0,5.68-4.49,8.91-8.9,6.63-2.51-1.3-3.39-3.46-3.38-6.21,0-25.55,0-51.11,0-76.66,0-4.17,2.54-6.82,6.15-6.83s6.06,2.6,6.09,6.88C561,67.75,560.9,80.6,560.9,93.46Z" transform="translate(-15 -7.54)"/><path class="cls-3" d="M550,35.84h13.4c2.15,0,3.87.74,3.89,3.11s-1.78,3.12-3.88,3.13c-5.52,0-11,.11-16.55,0-4.84-.1-6.45-2.89-4.2-7.18,1.66-3.15,4.48-5.21,7.37-7.16,2.48-1.67,5-3.21,7.44-5a5.16,5.16,0,0,0,1.86-5.89c-.56-2.12-2.15-3-4.19-3.21a5.42,5.42,0,0,0-5.6,2.71,5.5,5.5,0,0,0-.63,1.26C548.2,20.12,547,22.29,544,21c-3.23-1.36-2.26-4.15-1.37-6.48C544.38,10,550,7.17,556,7.58c5.32.36,9.74,3.47,10.87,7.65,1.35,5-.9,9.58-6.22,13C557.27,30.4,553.35,31.78,550,35.84Z" transform="translate(-15 -7.54)"/></svg>