<?xml version="1.0" encoding="utf-8"?>
<!-- Generator: Adobe Illustrator 26.0.1, SVG Export Plug-In . SVG Version: 6.00 Build 0)  -->
<svg version="1.1" id="Layer_1" xmlns="http://www.w3.org/2000/svg" xmlns:xlink="http://www.w3.org/1999/xlink" x="0px" y="0px"
	 width="1080px" height="1080px" viewBox="0 0 1080 1080" style="enable-background:new 0 0 1080 1080;" xml:space="preserve">
<style type="text/css">
	.st0{fill:#FFFFFF;}
</style>
<g>
	<g>
		<path d="M158.9,85c256.2,0,512.3,0,768.5,0c5.5,1.2,11.1,2.2,16.5,3.6c40.4,10.8,64.6,42.4,64.6,85.8
			c0.1,251.3,0.1,502.6-0.1,753.8c0,19.7-4.8,38.3-17.1,54.5c-18.9,24.8-44.8,33.9-74.8,33.9c-243.4,0-486.8,0-730.2,0
			c-11.2,0-22.4-0.7-33.5-1.5c-36.3-2.5-65.3-30.3-73.2-65.7c-1-4.6-1.8-9.3-2.8-13.9c0-256.2,0-512.3,0-768.5
			c0.8-2.5,2.1-5,2.3-7.6c3.1-34.6,32.9-66.7,66.7-71.8C150.3,86.9,154.6,85.9,158.9,85z M589.4,480.9c0-8.6,0-18,0-27.4
			c-0.1-17.3-9.7-26.9-27-26.9c-33.7,0-67.4,0-101.1,0c-18.3,0-28,9.6-28,28c0,144.2,0,288.3,0,432.5c0,19.1,9.9,28.8,29.3,28.9
			c32.5,0,64.9,0,97.4,0c20,0,29.3-9.4,29.3-29.6c0-73.4,0-146.9,0-220.3c0-24,5.1-46.8,15.5-68.5c14.9-31.1,43-47,77.7-43.8
			c32.7,3,55.4,21.7,63.7,55.6c4.2,17.2,6.8,35.2,6.9,52.9c0.7,75.3,0.3,150.5,0.3,225.8c0,18.7,9.2,27.9,27.9,27.9
			c34,0.1,68,0.1,102,0c19.7,0,29.7-9.7,29.6-29.7c-0.4-87.7-0.4-175.4-1.7-263.1c-0.5-35.8-6.1-71.1-19.5-104.8
			c-14.9-37.2-38.5-66.5-75.6-83.3c-35.6-16.1-73.2-18.1-111.4-14.6c-27.7,2.6-54.7,9.2-77.3,26.2
			C613.8,457,601.9,469.5,589.4,480.9z M211,671.1c0,71.6,0,143.2,0,214.8c0,20.2,9.9,30.1,30.2,30.1c30.3,0.1,60.7,0,91,0
			c25.9,0,34.8-9,34.8-35.1c0-139.8,0-279.7,0-419.5c0-2.4,0.1-4.9,0-7.3c-0.8-17.3-11.2-27.4-28.4-27.4c-32.8-0.1-65.5,0-98.3,0
			c-19.7,0-29.3,9.7-29.3,29.7C211,527.9,211,599.5,211,671.1z M389.1,287.4c0.1-55.5-45.1-100.9-100.4-100.9
			c-54.7,0-100.4,44.7-100.3,100.2c0.1,57.5,44.8,100.3,100.5,100.9C343.8,388.1,389,342.3,389.1,287.4z"/>
		<path class="st0" d="M589.4,480.9c12.5-11.4,24.4-24,38-34.2c22.7-17,49.6-23.6,77.3-26.2c38.1-3.6,75.8-1.5,111.4,14.6
			c37.2,16.8,60.8,46.2,75.6,83.3c13.4,33.6,19,69,19.5,104.8c1.3,87.7,1.4,175.4,1.7,263.1c0.1,20-9.9,29.6-29.6,29.7
			c-34,0-68,0.1-102,0c-18.7,0-27.9-9.2-27.9-27.9c0-75.3,0.4-150.5-0.3-225.8c-0.2-17.7-2.7-35.7-6.9-52.9
			c-8.3-33.8-31-52.6-63.7-55.6c-34.7-3.1-62.8,12.8-77.7,43.8c-10.4,21.7-15.6,44.4-15.5,68.5c0.1,73.4,0,146.9,0,220.3
			c0,20.1-9.3,29.5-29.3,29.6c-32.5,0-64.9,0-97.4,0c-19.4,0-29.3-9.7-29.3-28.9c0-144.2,0-288.3,0-432.5c0-18.4,9.6-28,28-28
			c33.7,0,67.4,0,101.1,0c17.3,0,26.9,9.6,27,26.9C589.4,463,589.4,472.4,589.4,480.9z"/>
		<path class="st0" d="M211,671.1c0-71.6,0-143.2,0-214.8c0-20,9.5-29.7,29.3-29.7c32.8,0,65.5-0.1,98.3,0
			c17.2,0,27.6,10.2,28.4,27.4c0.1,2.4,0,4.9,0,7.3c0,139.8,0,279.7,0,419.5c0,26.1-8.9,35.1-34.8,35.1c-30.3,0-60.7,0-91,0
			c-20.3,0-30.2-9.9-30.2-30.1C211,814.3,211,742.7,211,671.1z"/>
		<path class="st0" d="M389.1,287.4c-0.1,54.9-45.3,100.7-100.2,100.2c-55.7-0.6-100.3-43.4-100.5-100.9
			c-0.1-55.4,45.6-100.2,100.3-100.2C343.9,186.5,389.1,231.9,389.1,287.4z"/>
	</g>
</g>
</svg>
