<?xml version="1.0" encoding="utf-8"?>
<!-- Generator: Adobe Illustrator 26.0.1, SVG Export Plug-In . SVG Version: 6.00 Build 0)  -->
<svg version="1.1" id="Layer_1" xmlns="http://www.w3.org/2000/svg" xmlns:xlink="http://www.w3.org/1999/xlink" x="0px" y="0px"
	 width="1080px" height="1080px" viewBox="0 0 1080 1080" style="enable-background:new 0 0 1080 1080;" xml:space="preserve">
<style type="text/css">
	.st0{fill:#FDFDFE;}
</style>
<g>
	<path class="st0" d="M564.5,501.3c23.1-32,52.6-44.9,87.1-47.1c68.2-4.4,113.5,35.8,116.6,107.3C771,627.7,770,694,771,760.3
		c0.1,7.9-3,10.2-10.5,10.1c-25.4-0.3-50.9-0.5-76.3,0.1c-9.4,0.2-11.2-3.4-11.2-11.9c0.3-49.1,0.1-98.1,0.2-147.2
		c0-10.9-0.6-21.8-2.7-32.5c-4.5-22.2-16.6-35.2-35.5-37.9c-27.3-3.9-47.5,4.9-58,25.4c-5.1,9.9-6.9,20.5-7.5,31.5
		c-2.9,52.7-1.7,105.4-1.3,158c0.1,11.3-3,14.9-14.5,14.5c-23.6-0.9-47.2-0.6-70.8-0.1c-8.8,0.2-11.8-2.4-11.8-11.5
		c0.3-94.9,0.3-189.9,0-284.8c0-9.5,2.7-12.7,12.4-12.4c23.1,0.6,46.3,0.5,69.5,0c9-0.2,12.3,2.8,11.6,11.7
		C564,481.3,564.5,489.3,564.5,501.3z"/>
	<path class="st0" d="M413.5,617.8c0,45.8-0.4,91.6,0.3,137.4c0.2,12-3.3,15.7-15.4,15.2c-23.6-0.9-47.2-0.6-70.7-0.1
		c-8.9,0.2-11.7-2.8-11.7-11.7c0.3-94.8,0.3-189.6,0-284.4c0-9.2,2.4-12.9,12.3-12.7c24,0.6,48.1,0.7,72.1,0
		c10.5-0.3,13.1,3.6,13,13.3c-0.4,47.6-0.2,95.3-0.2,142.9C413.3,617.8,413.4,617.8,413.5,617.8z"/>
	<path class="st0" d="M420.5,366.4c-0.1,32-23.9,55.4-56.1,55.4c-30.9,0-56.5-25.8-56-56.3c0.6-31,26.2-56.1,56.9-55.7
		C397,310.1,420.7,334.4,420.5,366.4z"/>
</g>
</svg>
