<svg id="Layer_1" enable-background="new 0 0 480 480" height="512" viewBox="0 0 480 480" width="512" fill="#1E74B4" xmlns="http://www.w3.org/2000/svg"><g><path d="m446 196.917v86.166c0 4.373-3.545 7.917-7.917 7.917-4.766 0-8.083-3.713-8.083-7.917v-86.166c0-4.373 3.545-7.917 7.917-7.917 4.766 0 8.083 3.713 8.083 7.917z"/><path d="m50 196.917v86.166c0 4.373-3.545 7.917-7.917 7.917-4.766 0-8.083-3.713-8.083-7.917v-86.166c0-4.373 3.545-7.917 7.917-7.917 4.766 0 8.083 3.713 8.083 7.917z"/><path d="m188.224 70.949-87.079 45.299c-4.145 2.156-9.251.274-10.988-4.064-1.675-4.183.175-8.341 3.62-10.133l87.079-45.299c4.145-2.156 9.251-.274 10.988 4.064 1.675 4.182-.175 8.341-3.62 10.133z"/><path d="m191.904 419.034c-1.92 4.738-7.083 6.277-11.049 4.214l-87.079-45.299c-3.618-1.882-5.212-6.203-3.681-9.983 1.92-4.738 7.083-6.277 11.049-4.214l87.079 45.299c3.619 1.882 5.213 6.203 3.681 9.983z"/><path d="m389.904 112.034c-1.92 4.738-7.082 6.277-11.049 4.214l-87.079-45.299c-3.618-1.882-5.212-6.203-3.681-9.983 1.92-4.738 7.083-6.277 11.049-4.214l87.079 45.299c3.619 1.882 5.213 6.203 3.681 9.983z"/><path d="m386.224 377.949-87.079 45.299c-4.145 2.156-9.251.274-10.988-4.064-1.675-4.183.175-8.341 3.62-10.133l87.079-45.299c4.145-2.156 9.251-.274 10.988 4.064 1.675 4.182-.175 8.341-3.62 10.133z"/><path d="m240.08 86c4.374 0 7.92 3.546 7.92 7.92v7.08c0 10.588-16 10.585-16 0v-7.08c0-4.173 3.285-7.92 8.08-7.92z"/><path d="m248 379v7.08c0 4.374-3.546 7.92-7.92 7.92-4.787 0-8.08-3.74-8.08-7.92v-7.08c0-10.588 16-10.585 16 0z"/><path d="m111.29 183.09-17.516-9.174c-3.602-1.887-5.192-6.195-3.667-9.965 1.923-4.753 7.101-6.297 11.074-4.217l17.529 9.176c9.403 4.917 1.931 19.094-7.42 14.18z"/><path d="m389.893 163.951c1.525 3.77-.064 8.078-3.667 9.965l-17.516 9.174c-9.304 4.889-16.886-9.23-7.42-14.18l17.529-9.176c3.967-2.076 9.148-.543 11.074 4.217z"/><path d="m118.71 311.09-17.529 9.176c-4.152 2.174-9.274.285-11.014-4.067-1.666-4.166.17-8.315 3.607-10.115l17.516-9.174c9.371-4.914 16.811 9.269 7.42 14.18z"/><path d="m389.893 316.049c-1.923 4.753-7.101 6.297-11.074 4.217l-17.529-9.176c-9.369-4.899-1.966-19.101 7.42-14.18l17.516 9.174c3.603 1.887 5.192 6.195 3.667 9.965z"/><path d="m251 410h-22c-13.234 0-24 10.767-24 24v22c0 13.233 10.766 24 24 24h22c13.234 0 24-10.767 24-24v-22c0-13.233-10.766-24-24-24z"/><path d="m251 0h-22c-13.234 0-24 10.767-24 24v22c0 13.233 10.766 24 24 24h22c13.234 0 24-10.767 24-24v-22c0-13.233-10.766-24-24-24z"/><path d="m53 307h-22c-13.234 0-24 10.767-24 24v22c0 13.233 10.766 24 24 24h22c13.234 0 24-10.767 24-24v-22c0-13.233-10.766-24-24-24z"/><path d="m449 103h-22c-13.234 0-24 10.767-24 24v22c0 13.233 10.766 24 24 24h22c13.234 0 24-10.767 24-24v-22c0-13.233-10.766-24-24-24z"/><path d="m449 307h-22c-13.234 0-24 10.767-24 24v22c0 13.233 10.766 24 24 24h22c13.234 0 24-10.767 24-24v-22c0-13.233-10.766-24-24-24z"/><path d="m53 103h-22c-13.234 0-24 10.767-24 24v22c0 13.233 10.766 24 24 24h22c13.234 0 24-10.767 24-24v-22c0-13.233-10.766-24-24-24z"/><path d="m229.913 239.617-82-44.644c-2.665-1.451-5.913.478-5.913 3.513v95.514c0 2.93 1.602 5.625 4.175 7.026l79.913 43.508c2.665 1.451 5.913-.478 5.913-3.513v-97.891c-.001-1.465-.802-2.813-2.088-3.513z"/><path d="m241.913 225.85 81.635-44.446c2.783-1.515 2.783-5.511 0-7.026l-79.722-43.404c-2.385-1.299-5.266-1.299-7.65 0l-79.722 43.404c-2.783 1.515-2.783 5.511 0 7.026l81.635 44.446c1.191.649 2.631.649 3.824 0z"/><path d="m248 243.13v97.891c0 3.035 3.247 4.964 5.913 3.513l79.913-43.508c2.572-1.401 4.174-4.096 4.174-7.026v-95.514c0-3.035-3.247-4.964-5.913-3.513l-82 44.644c-1.286.7-2.087 2.048-2.087 3.513z"/></g></svg>