<svg height="512" viewBox="0 0 32 32" width="512" xmlns="http://www.w3.org/2000/svg" fill="#1E74B4"><g id="_x31_5"><path d="m17 26.2783203v-6.5166016l-.296875.1113281c-.2216797.0839845-.4589844.1269532-.703125.1269532s-.4814453-.0429688-.7060547-.1289063l-.2939453-.1101684v6.517395c-.5947876.3469849-1 .9849854-1 1.7216797 0 1.1025391.8974609 2 2 2s2-.8974609 2-2c0-.7366943-.4052124-1.3746948-1-1.7216797z"/><path d="m23 26.2783203v-2.2783203c0-.3339844-.1669922-.6464844-.4453125-.8320313l-2.5546875-1.7031249v-2.8282471l-2 .750061v2.6133423c0 .3339844.1669922.6464844.4453125.8320313l2.5546875 1.703125v1.7431641c-.5947876.3469848-1 .9849853-1 1.7216796 0 1.1025391.8974609 2 2 2s2-.8974609 2-2c0-.7366943-.4052124-1.3746948-1-1.7216797z"/><path d="m28 26.2783203v-3.2783203c0-.3515625-.1845703-.6767578-.4853516-.8574219l-4.5146484-2.7089843v-1.9221802l-2 .7501221v1.7384643c0 .3515625.1845703.6767578.4853516.8574219l4.5146484 2.7089844v2.7119141c-.5947876.3469848-1 .9849853-1 1.7216796 0 1.1025391.8974609 2 2 2s2-.8974609 2-2c0-.7366943-.4052124-1.3746948-1-1.7216797z"/><path d="m6 26.2783203v-2.7119141l4.5146484-2.7089844c.3007813-.180664.4853516-.5058593.4853516-.8574218v-1.7386475l-2-.7498169v1.9220581l-4.5146484 2.7089844c-.3007813.1806641-.4853516.5058594-.4853516.8574219v3.2783203c-.5947876.3469849-1 .9849854-1 1.7216797 0 1.1025391.8974609 2 2 2s2-.8974609 2-2c0-.7366943-.4052124-1.3746948-1-1.7216797z"/><path d="m14 19.3859863-2-.7497559v2.8286133l-2.5546875 1.703125c-.2783203.1855469-.4453125.4980469-.4453125.8320313v2.2783203c-.5947876.3469849-1 .9849854-1 1.7216797 0 1.1025391.8974609 2 2 2s2-.8974609 2-2c0-.7366943-.4052124-1.3746948-1-1.7216797v-1.7431641l2.5546875-1.703125c.2783203-.1855468.4453125-.4980468.4453125-.8320312z"/><path d="m24.1373901 10.588562-7.5494995 2.3228149c-.1879883.0585938-.3867187.0888672-.5878906.0888672s-.3999023-.0302734-.5908203-.0893555l-7.5465698-2.3222656-.8430786 4.215332c-.0961914.480957.1704102.9604492.6293945 1.1328125l8 3c.1132812.0424805.2319336.0634766.3510742.0634766s.237793-.0209961.3510742-.0634766l8.0004883-3c.4589844-.1723633.7255859-.6518555.6289063-1.1328125z"/><path d="m29.2939453 6.0446777-13-4c-.1914063-.0595703-.3964844-.0595703-.5878906 0l-13 4c-.4199219.1289063-.7060547.5166016-.7060547.9555664s.2861328.8266602.7060547.9555664l13 4c.0957031.0297852.1948242.0444336.2939453.0444336s.1982422-.0146484.2939453-.0444336l11.7060547-3.6018676v8.6463013c0 .5522461.4472656 1 1 1s1-.4477539 1-1v-10c0-.4389649-.2861328-.8266602-.7060547-.9555665z"/></g></svg>