<svg id="Layer_1" height="512" viewBox="0 0 512 512" width="512" xmlns="http://www.w3.org/2000/svg" data-name="Layer 1" fill="#1E74B4"><path class="custom-fill" style="fill: #1E74B4;" d="m145.683 210.574a66.365 66.365 0 1 1 -66.365 66.365 66.365 66.365 0 0 1 66.365-66.365zm262.588 154.126h-75.022a21.047 21.047 0 0 1 -4.6-.506c2.309 27.686 27.728 52.779 42.108 74.642 14.381-21.863 39.8-46.956 42.108-74.642a21.047 21.047 0 0 1 -4.6.506zm-80.022-33.05v12.05a5.009 5.009 0 0 0 5 5h75.022a5.009 5.009 0 0 0 5-5v-12.05zm141.136-101.544c-1.512 29.369-6.907 59.509-14.992 89.685l-2.5 9.317 25.3 26.273 17.987-109.431-25.8-15.844zm-223.044 15.844 17.988 109.431 25.294-26.272-2.5-9.318c-8.086-30.176-13.481-60.315-14.992-89.684zm56.24 69.7q-2.892-10.791-5.415-22.047h147.186c-1.667 7.491-3.487 14.853-5.414 22.047zm68.178-274.089c-85.6 64.6-91.695 156.165-76.866 236.042h153.733c14.829-79.877 8.733-171.447-76.867-236.042zm0 159.938a36.332 36.332 0 1 1 36.332-36.332 36.332 36.332 0 0 1 -36.332 36.333zm-343.931 268.94a9.966 9.966 0 0 1 -9.8-11.978 131.326 131.326 0 0 1 119.187-104.82l-22.6 71.068 32.074 36.214 32.073-36.214-22.6-71.068a131.326 131.326 0 0 1 119.177 104.819 9.966 9.966 0 0 1 -9.8 11.979z" fill-rule="evenodd"/></svg>