<svg id="Layer_1" enable-background="new 0 0 512 512" height="512" viewBox="0 0 512 512" width="512" fill="#1E74B4" xmlns="http://www.w3.org/2000/svg"><path clip-rule="evenodd" d="m289.499 461.176c0 19.151-15.672 34.824-34.824 34.824h-207.351c-19.153 0-34.824-15.671-34.824-34.824v-410.352c0-19.153 15.671-34.824 34.824-34.824h207.352c19.153 0 34.824 15.671 34.824 34.824v111.891l63.316-.077c-6.836 3.903-13.269 8.577-19.176 13.969l-44.14.054v26.1h23.19c-2.572 4.504-4.81 9.182-6.699 14h-16.491v32.239 14 32.24 14 26.215h44.206c5.935 5.408 12.4 10.092 19.27 14h-63.476v111.721zm116.547-298.63c-51.612 0-93.454 41.843-93.454 93.454s41.843 93.454 93.454 93.454 93.454-41.843 93.454-93.454-41.842-93.454-93.454-93.454zm-26.909 136.05c-2.809-2.643-2.944-7.062-.301-9.871s7.062-2.944 9.871-.301c2.957 2.789 5.535 4.968 8.218 6.325 2.451 1.24 5.293 1.909 9.121 1.909 5.55 0 10.513-1.954 14.049-5.111 3.332-2.976 5.393-7.045 5.393-11.501 0-4.457-2.061-8.526-5.393-11.501-3.536-3.157-8.499-5.111-14.049-5.111-9.053 0-17.313-3.333-23.346-8.721-6.302-5.627-10.096-13.387-10.096-21.892 0-8.6 3.876-16.337 10.096-21.892 4.414-3.941 10.018-6.783 16.253-8.025l-.193-8.089c-.09-3.851 2.958-7.046 6.809-7.137 3.851-.09 7.046 2.958 7.137 6.809l.206 8.618c3.211.729 6.613 1.882 9.745 3.339 5.23 2.433 10.054 5.862 12.673 9.846 2.114 3.217 1.22 7.538-1.996 9.652s-7.538 1.22-9.653-1.996c-1.072-1.631-3.746-3.36-6.876-4.816-3.887-1.808-8.028-2.951-10.758-2.951-5.113 0-10.21 1.71-14.049 5.139-3.349 2.991-5.421 7.061-5.421 11.501 0 4.485 2.113 8.547 5.421 11.501 3.536 3.158 8.499 5.111 14.049 5.111 9.053 0 17.312 3.333 23.346 8.721 6.238 5.57 10.096 13.308 10.096 21.892 0 8.583-3.858 16.321-10.096 21.892-4.409 3.937-10.007 6.777-16.234 8.021l.174 7.224c.09 3.851-2.958 7.046-6.809 7.137-3.851.09-7.046-2.958-7.137-6.809l-.179-7.424c-3.136-.562-5.928-1.531-8.571-2.868-4.185-2.115-7.674-5.012-11.5-8.621zm-89.638-135.882-53.071.064v-74.52c8.727-2.925 15.015-11.166 15.015-20.877 0-12.158-9.856-22.015-22.014-22.015s-22.015 9.857-22.015 22.015c0 9.711 6.288 17.953 15.015 20.878v81.5c0 3.866 3.134 7 7 7 .21 0 .418-.01.624-.028l59.447-.072v-13.945zm0 40.046h-186.371v-44.432c8.726-2.925 15.015-11.166 15.015-20.877 0-12.158-9.856-22.015-22.014-22.015s-22.015 9.857-22.015 22.015c0 9.711 6.288 17.953 15.015 20.878v51.432c0 3.866 3.134 7 7 7h193.371v-14.001zm0 46.24h-105.843c-2.924-8.727-11.167-15.015-20.877-15.015-12.158 0-22.015 9.856-22.015 22.015 0 12.158 9.856 22.015 22.015 22.015 9.711 0 17.952-6.288 20.877-15.015h105.844 9.32c-.302-4.665-.302-9.334 0-14zm0 46.24h-193.371c-3.866 0-7 3.134-7 7v51.432c-8.727 2.924-15.015 11.167-15.015 20.878 0 12.158 9.856 22.015 22.015 22.015 12.158 0 22.014-9.857 22.014-22.015 0-9.711-6.288-17.953-15.015-20.877v-44.433h186.371 23.19c-2.572-4.504-4.81-9.182-6.699-14zm0 40.214h-60.071c-3.866 0-7 3.134-7 7v81.5c-8.727 2.924-15.015 11.167-15.015 20.878 0 12.158 9.856 22.015 22.015 22.015 12.158 0 22.014-9.857 22.014-22.015 0-9.711-6.288-17.953-15.015-20.878v-74.501h53.071v-13.999zm-157.444 119.229h37.889c3.866 0 7-3.134 7-7s-3.134-7-7-7h-37.889c-3.866 0-7 3.134-7 7s3.134 7 7 7z" fill-rule="evenodd"/></svg>