<svg id="Capa_1" enable-background="new 0 0 511.006 511.006" height="512" viewBox="0 0 511.006 511.006" width="512" xmlns="http://www.w3.org/2000/svg" fill="#1E74B4"><path class="custom-fill" style="fill: #1E74B4;" d="m423.278 263.433-.583-29.39-2.869.117-61.432 2.542c-16.959.702-31.276-12.477-31.978-29.436s12.477-31.276 29.436-31.978l52.826-2.186 12.615-9.778-.703-35.475c-.113-5.706-4.775-10.255-10.456-10.255-.071 0-.141.001-.211.002l-135.585 2.688c-5.777.115-10.367 4.89-10.252 10.667l.136 6.835c.336-.01.67-.036 1.006-.036 15.447 0 29.26 10.363 33.591 25.202 1.486 5.092 1.751 10.253.978 15.176 7.33 3.556 12.461 10.979 12.634 19.683.245 12.358-9.575 22.575-21.933 22.82-.151.003-.302.005-.452.005-7.688 0-14.499-3.897-18.53-9.848l-5.844.116.106 5.326 6.005 20.576c1.692 5.798 1.025 11.907-1.878 17.204-.912 1.664-2.03 3.166-3.288 4.523l.159 8.004c.113 5.706 4.774 10.254 10.455 10.254.071 0 .141-.001.212-.002l135.585-2.688c5.774-.116 10.365-4.891 10.25-10.668z"/><path d="m126.721 351.19c-.238-1.755-.685-3.474-1.329-5.123l-23.214-59.389h.351v-16.356c-1.495-5.122-8.748-29.976-11.056-37.883l-.49-.02c-1.88-.478-15.47 1.856-22.266-10.944l-30.829-58.426 41.52 49.449c3.031 3.611 7.442 5.778 12.152 5.973 47.824 1.976 61.594 2.557 62.138 2.557 8.943 0 16.373-7.061 16.746-16.08.383-9.256-6.809-17.069-16.065-17.452l-54.039-2.237-36.76-43.78 8.655 6.709c2.569-6.011 7.705-10.873 14.455-12.843l10.963-3.2c-4.898-7.011-13.023-11.601-22.224-11.601h-48.324c-14.966-.001-27.105 12.132-27.105 27.098 0 0 .1 132.205 0 314.255 0 12.347 10.003 22.356 22.35 22.356s22.219-10.009 22.219-22.356c-.1-182.024.522-171.903 0-175.219h9.601l28.606 73.184 14.301 105.047c1.663 12.217 12.918 20.805 25.167 19.136 12.234-1.665 20.802-12.933 19.136-25.167z"/><path d="m271.426 194.033c11.749-3.429 18.494-15.733 15.065-27.482-3.42-11.717-15.704-18.503-27.482-15.065-7.763 2.265-13.338 8.406-15.241 15.701l-5.236 1.528-14.558-49.881c-1.504-5.154-6.912-8.16-12.116-6.641l-49.882 14.557-1.528-5.236c5.126-5.527 7.304-13.53 5.039-21.293-3.413-11.694-15.68-18.509-27.482-15.065-11.749 3.429-18.494 15.733-15.065 27.482 2.266 7.763 8.406 13.338 15.701 15.241l1.528 5.236-49.881 14.557c-4.161 1.215-6.893 4.955-7.025 9.065l18.867 14.625 52.826 2.186c16.959.702 30.138 15.019 29.436 31.978s-15.019 30.138-31.978 29.436l-47.402-1.962 14.113 48.358c1.507 5.165 6.922 8.157 12.116 6.642l50.161-14.639-1.593-5.459c-6.555-1.968-12.014-7.106-14.074-14.165-3.234-11.081 3.127-22.686 14.208-25.919 11.131-3.249 22.7 3.177 25.919 14.208 2.06 7.059.222 14.327-4.246 19.512l1.593 5.459 49.602-14.476c5.18-1.512 8.153-6.936 6.641-12.116l-14.558-49.881 5.236-1.528c5.626 5.212 13.651 7.267 21.296 5.037z"/><circle cx="57.722" cy="66.868" r="40.115"/><path d="m511.006 149.384c0-14.966-12.335-27.099-27.301-27.099-50.446.046-48.542-.106-50.978.131.42 1.665.666 3.397.702 5.178l.514 25.925 13.287-10.299-36.762 43.78-54.038 2.236c-9.256.383-16.448 8.197-16.065 17.452.381 9.193 8.114 16.435 17.452 16.066l61.432-2.543c4.71-.195 9.121-2.362 12.152-5.973l41.52-49.448-30.828 58.425c-1.62 3.07-3.925 5.539-6.623 7.339l.647 32.624c.255 12.847-9.989 23.505-22.836 23.76l-5 .099v.54l-22.863 58.49c-.644 1.649-1.091 3.369-1.33 5.123l-14.66 107.688c-1.826 13.421 8.604 25.375 22.181 25.375 11.006-.001 20.598-8.133 22.124-19.344l14.301-105.047 27.926-71.443h10.6l-.132 173.46c-.01 12.348 9.992 22.364 22.34 22.374h.018c12.338 0 22.213-9.998 22.222-22.339-.002-40.023-.002-275.63-.002-312.53z"/><circle cx="453.087" cy="68.609" r="40.115"/></svg>