<svg id="Layer_1" enable-background="new 0 0 512 512" viewBox="0 0 512 512" xmlns="http://www.w3.org/2000/svg" fill="#1E74B4"><path style="fill: #1E74B4;" class="custom-fill" d="m215.395 123.909-1.879-.708.716-1.876c12.143-31.844 36.632-57.78 67.675-71.804l1.433-.647.967 1.239c10.836 13.883 18.333 30.099 14.282 47.97-2.955 13.035-11.091 23.644-19.154 33.943-2.993 3.823-6.163 7.779-8.64 11.956-1.837 3.099-3.488 6.698-3.494 10.369-.001.599.042 1.197.129 1.79.604 4.082 3.228 7.119 6.521 9.429 4.13 2.896 8.453 5.389 12.847 7.853 4.859 2.725 9.947 5.519 13.96 9.438 6.487 6.334 8.657 14.34 9.204 23.175.418 6.751-.129 13.737-.969 20.436-1.227 9.795-3.181 19.586-5.335 29.146-.104.547-.278 1.083-.556 1.568l-.576 1.008h-1.161c-2.363 0-5.778-1.969-7.683-3.178-2.862-1.817-5.593-3.96-8.182-6.144-4.198-3.542-8.197-7.372-12.059-11.274-5.636-5.695-11.059-11.65-16.281-17.726-2.042-2.376-4.058-4.777-6.027-7.213-1.271-1.572-2.558-3.176-3.74-4.817-12.007-16.681-13.163-29.361-9.14-49.369 1.037-5.159.86-10.387-.999-15.341-3.617-9.644-12.567-15.721-21.859-19.223zm171.87-40.779c-7.273 2.027-14.109 4.042-20.342 8.514-10.087 7.238-18.692 18.357-18.11 31.368.563 12.583 9.55 22.175 19.898 28.28l.054.032.056.028c3.889 1.979 7.813 3.882 11.749 5.766 5.094 2.439 10.341 4.887 15.167 7.823 3.857 2.347 7.566 5.114 10.32 8.735 4.615 6.066 5.542 13.351 5.125 20.773-.497 8.857-.658 29.294 9.813 33.247 5.115 1.932 11.522-.771 15.907-3.371 8.049-4.772 15.353-12.427 21.151-19.68l.241-.302.112-.37c3.601-11.948 5.375-24.352 5.375-36.828 0-39.358-17.874-76.249-48.558-100.781l-1.925-1.539-1.11 2.2c-5.268 10.454-14.538 13.21-24.923 16.105zm-352.716 263.284 73.546 127.42 56.046-32.355-73.546-127.42zm300.249-50.287c47.519 0 90.94-26.13 113.525-67.742l4.372-8.055-7.33 5.502c-5.708 4.284-13.229 8.52-20.573 8.52-2.003 0-4.017-.329-5.893-1.041-13.9-5.274-14.412-27.17-13.743-39.196.296-5.322-.106-10.827-2.974-15.471-2.219-3.593-5.565-6.174-9.116-8.356-4.746-2.916-10.051-5.35-15.076-7.76-4.033-1.934-8.05-3.901-12.05-5.904l-.221-.11c-12.273-7.217-22.19-18.459-22.884-33.224-.05-1.067-.049-2.137.004-3.204.684-13.84 9.673-25.492 20.563-33.319 6.889-4.951 14.182-7.179 22.221-9.423 9.523-2.659 17.831-4.776 21.958-14.719l.626-1.509-1.354-.915c-21.352-14.418-46.292-22.036-72.057-22.036-14.693 0-29.251 2.49-43.093 7.42l-2.545.906 1.61 2.169c11.271 15.185 18.23 32.468 13.558 51.44-3.371 13.689-11.661 24.732-20.175 35.62-2.623 3.353-5.364 6.791-7.638 10.389-1.566 2.477-3.575 6.055-3.168 9.097.246 2.338 2.259 4.192 4.069 5.461 3.954 2.773 8.091 5.16 12.297 7.519 5.902 3.31 12.134 6.958 16.787 11.945 6.476 6.938 8.735 15.417 9.36 24.699.482 7.162-.034 14.55-.886 21.666-1.225 10.231-3.232 20.456-5.492 30.504-.774 3.44-2.714 6.284-6.313 7.015-.648.132-1.282.199-1.943.199-9.737 0-26.069-16.318-32.197-22.518-5.75-5.818-11.28-11.901-16.599-18.115-2.073-2.422-4.119-4.871-6.117-7.355-1.283-1.595-2.576-3.218-3.773-4.878-12.97-17.99-14.491-32.452-10.149-54.053 2.877-14.319-6.395-22.99-18.766-27.666l-2.026-.766-.603 2.08c-3.408 11.769-5.136 23.95-5.136 36.203.001 71.107 57.823 128.981 128.94 128.981zm138.878 26.786c-7.84-13.589-25.342-18.27-38.927-10.43l-100.394 57.941-.239.723c-4.659 14.067-17.906 23.632-32.704 23.632-3.03 0-6.014-.398-8.941-1.182l-69.86-18.715c-1.605-.43-2.515-2.09-2.096-3.683.421-1.596 2.095-2.538 3.682-2.113l69.814 18.716c7.413 1.987 15.259.909 21.866-2.99 6.443-3.803 11.106-9.928 13.033-17.161 1.952-7.328.929-15.037-2.871-21.603-3.814-6.592-9.911-11.323-17.274-13.296l-133.821-35.858c-12.82-3.435-25.33-1.793-36.823 4.845l-35.772 20.661 59.312 102.725 21.585-12.472c.648-.374 1.369-.494 2.103-.341l127.407 26.591c.041.009.084.016.125.027l.049.014c7.327 1.954 15.032.98 21.603-2.813l128.671-74.295c6.596-3.809 11.264-9.957 13.246-17.305 1.973-7.321 1.017-15.048-2.774-21.618z"/></svg>